# xmcd CD database file
#
# Track frame offsets:
#	150
#	17300
#	44297
#	71255
#	80407
#	99822
#	124430
#	147422
#	168425
#	187905
#	202595
#	227862
#	244030
#
# Disc length: 3509 seconds
#
# Revision: 0
# Processed by: cddbd v1.5.1PL0 Copyright (c) Steve Scherf et al.
# Submitted via: CDex 1.51
#
DISCID=9c0db30d
DTITLE=Ash Grundwald - Live at the Corner
DYEAR=2004
DGENRE=Blues
TTITLE0=If You Don't Mind
TTITLE1=Just Be Yourself
TTITLE2=Going Out West (T. Waits)
TTITLE3=Hey Baby
TTITLE4=Spoonful (C. Burnett)
TTITLE5=Everyday
TTITLE6=Crossroads (R. Johnson)
TTITLE7=Smokestack Lighting (C. Burnett)
TTITLE8=Is There A Reason
TTITLE9=Just Can't Help Myself
TTITLE10=Dolphin Song
TTITLE11=Jesus Gonna Be Here (T. Waits)
TTITLE12=Walking Blues (R.Johnson)
EXTD=YEAR: 2004
EXTT0=
EXTT1=
EXTT2=
EXTT3=
EXTT4=
EXTT5=
EXTT6=
EXTT7=
EXTT8=
EXTT9=
EXTT10=
EXTT11=
EXTT12=
PLAYORDER=
